# xmcd
#
# Track frame offsets: 
#        150
#        12694
#        25387
#        38155
#        51400
#        64434
#        77343
#        90741
#        103839
#        116691
#        128612
#        140377
#        152450
#        164983
#        177261
#        190294
#        202907
#        216391
#        228492
#        240782
#        253474
#        266340
#        279296
#        292508
#
# Disc length: 4071 seconds
#
# Revision: 1
# Processed by: cddbd v1.5.2PL0 Copyright (c) Steve Scherf et al.
# Submitted via: ExactAudioCopyFreeDBPlugin 1.0
#
DISCID=580fe518
DTITLE=Various Artist - Jack Newman: Complete Recorded Works (1938)
DYEAR=1995
DGENRE=Blues
TTITLE0=James Hall - Sweet Woman
TTITLE1=James Hall - West Helena Blues
TTITLE2=James Hall - Street Walkin' Woman
TTITLE3=James Hall - My Jivin' Woman
TTITLE4=James Hall - 15th Street Woman
TTITLE5=James Hall - Coal Man Blues
TTITLE6=Frankie Jones - Bring Your Mud and Let's Dob
TTITLE7=Frankie Jones - L Stands For Lucky
TTITLE8=Frankie Jones - Solid Man
TTITLE9=Frankie Jones - Jockey Blues
TTITLE10=Frankie Jones - My Lincoln
TTITLE11=Frankie Jones - Gamblin' Man
TTITLE12=Jack Newman - Blackberry Wine
TTITLE13=Jack Newman - My Woman Out West
TTITLE14=Jack Newman - New Prison Blues
TTITLE15=Jack Newman - Black And Yellow Woman
TTITLE16=Jack Newman - Way Late In The Evening
TTITLE17=Jack Newman - 38 Special
TTITLE18=Black Bottom McPhail - Wee Wee Woman
TTITLE19=Black Bottom McPhail - Lonesome Chain Blues
TTITLE20=Black Bottom McPhail - New Whiskey Man
TTITLE21=Black Bottom McPhail - Don't Go Down In Black Bottom
TTITLE22=Black Bottom McPhail - Boll Weavil
TTITLE23=Black Bottom McPhail - John
EXTD=
EXTT0=
EXTT1=
EXTT2=
EXTT3=
EXTT4=
EXTT5=
EXTT6=
EXTT7=
EXTT8=
EXTT9=
EXTT10=
EXTT11=
EXTT12=
EXTT13=
EXTT14=
EXTT15=
EXTT16=
EXTT17=
EXTT18=
EXTT19=
EXTT20=
EXTT21=
EXTT22=
EXTT23=
PLAYORDER=
